<svg width="64" height="64" viewBox="0 0 64 64" fill="none" xmlns="http://www.w3.org/2000/svg">
<path fill-rule="evenodd" clip-rule="evenodd" d="M22.3951 17.0001H22.3894L14.9734 7.46526C14.1257 6.3754 12.555 6.17906 11.4651 7.02673C10.3753 7.87441 10.1789 9.4451 11.0266 10.535L16.0551 17.0001H14C9.85786 17.0001 6.5 20.358 6.5 24.5001V39.5001C6.5 43.6423 9.85786 47.0001 14 47.0001H39.3884L46.0266 55.535C46.8743 56.6248 48.445 56.8212 49.5349 55.9735C50.6247 55.1258 50.8211 53.5551 49.9734 52.4653L45.4967 46.7095C45.4982 46.709 45.4998 46.7086 45.5013 46.7081L41.8395 42.0001H41.8338L36.0005 34.5001H36.0062L32.1173 29.5001H32.1116L26.2783 22.0001H26.284L22.3951 17.0001ZM38.4516 29.5001L42.3405 34.5001H45.5C46.8807 34.5001 48 33.3808 48 32.0001C48 30.6194 46.8807 29.5001 45.5 29.5001H38.4516ZM46.551 39.9136L51.7678 34.6968C52.2366 34.228 52.5 33.5921 52.5 32.929V24.5001C52.5 23.1194 51.3807 22.0001 50 22.0001H32.6183L28.7294 17.0001H50C54.1421 17.0001 57.5 20.358 57.5 24.5001V32.929C57.5 34.9182 56.7098 36.8258 55.3033 38.2323L49.6446 43.8911L46.551 39.9136ZM14 22.0001H19.944L25.7773 29.5001H18.5C17.1193 29.5001 16 30.6194 16 32.0001C16 33.3808 17.1193 34.5001 18.5 34.5001H29.6662L35.4995 42.0001H14C12.6193 42.0001 11.5 40.8808 11.5 39.5001V24.5001C11.5 23.1194 12.6193 22.0001 14 22.0001Z" fill="#B04EFB"/>
</svg>
