<svg width="512" height="512" viewBox="0 0 512 512" fill="none" xmlns="http://www.w3.org/2000/svg">
<path fill-rule="evenodd" clip-rule="evenodd" d="M162.588 111.06H162.532L90.408 18.3823C82.1637 7.78889 66.8878 5.88047 56.288 14.1198C45.6892 22.3592 43.7791 37.6262 52.0234 48.22L100.928 111.06H80.9412C40.6568 111.06 8 143.699 8 183.96V329.759C8 370.021 40.6568 402.659 80.9412 402.659H327.856L392.416 485.618C400.66 496.211 415.936 498.12 426.536 489.88C437.134 481.641 439.044 466.373 430.8 455.781L387.262 399.835L387.307 399.821L351.694 354.059H351.639L294.907 281.16H294.962L257.141 232.56H257.085L200.354 159.66H200.409L162.588 111.06ZM318.745 232.56L356.566 281.16H387.294C400.722 281.16 411.608 270.28 411.608 256.86C411.608 243.439 400.722 232.56 387.294 232.56H318.745ZM397.516 333.779L448.252 283.072C452.811 278.515 455.373 272.334 455.373 265.889V183.96C455.373 170.54 444.487 159.66 431.059 159.66H262.013L224.192 111.06H431.059C471.343 111.06 504 143.699 504 183.96V265.889C504 285.224 496.315 303.765 482.636 317.437L427.602 372.44L397.516 333.779ZM80.9412 159.66H138.749L195.481 232.56H124.706C111.278 232.56 100.392 243.439 100.392 256.86C100.392 270.28 111.278 281.16 124.706 281.16H233.303L290.034 354.059H80.9412C67.5132 354.059 56.6275 343.18 56.6275 329.759V183.96C56.6275 170.54 67.5132 159.66 80.9412 159.66Z" fill="#B04EFB"/>
</svg>
